<?xml version="1.0"?>
<svg xmlns="http://www.w3.org/2000/svg" height="512px" viewBox="-1 0 451 451.30554" width="512px"><path d="m231.082031 183.882812 2 3.460938 2 3.464844 6.917969-4-4-6.925782zm0 0" fill="#FFFFFF"/><path d="m312.839844 133.488281-45.246094-78.359375-45.824219 48.625 26.046875 45.113282zm0 0" fill="#FFFFFF"/><path d="m245.226562 240.378906-32-55.425781-13.128906 7.578125 37.550782 52.230469zm0 0" fill="#FFFFFF"/><path d="m220.953125 134.304688-12-20.800782-48.496094 28c-1.84375 1.0625-3.1875 2.8125-3.734375 4.867188-.550781 2.050781-.261718 4.238281.804688 6.078125l16 27.695312c2.207031 3.828125 7.101562 5.144531 10.929687 2.9375l48.496094-28zm0 0" fill="#FFFFFF"/><path d="m.152344 185.265625v239.65625l157.976562-147.046875zm0 0" fill="#FFFFFF"/><path d="m8.152344 451.304688h432c3.273437-.011719 6.207031-2.019532 7.410156-5.0625l-171.800781-159.921876-47.5625 27.882813c-2.496094 1.464844-5.59375 1.464844-8.09375 0l-47.5625-27.882813-171.796875 159.921876c1.199218 3.042968 4.132812 5.050781 7.40625 5.0625zm0 0" fill="#FFFFFF"/><path d="m276.074219 37.816406 13.863281-8.003906 56.007812 96.992188-13.863281 8.003906zm0 0" fill="#FFFFFF"/><path d="m448.152344 185.265625-157.976563 92.609375 157.976563 147.046875zm0 0" fill="#FFFFFF"/><path d="m440.3125 171.304688-216.160156 126.722656-216.160156-126.722656 216.160156-126.71875 18.71875 13.441406-36 38.238281-54.398438 31.359375c-5.519531 3.179688-9.546875 8.425781-11.199218 14.578125-1.648438 6.152344-.785157 12.707031 2.398437 18.222656l16 27.757813c4.28125 7.441406 12.21875 12.019531 20.800781 12 1.671875-.054688 3.332032-.269532 4.960938-.636719l43.4375 60.398437c1.496094 2.097657 3.90625 3.347657 6.480468 3.359376 1.402344.015624 2.785157-.34375 4-1.039063l20.800782-12c3.820312-2.226563 5.140625-7.113281 2.960937-10.960937l-20-34.640626 13.839844-8c1.835937-1.066406 3.175781-2.824218 3.714844-4.878906.539062-2.058594.238281-4.246094-.835938-6.078125l-11.757812-20.480469 74.636719-17.601562c5.035156 3.851562 11.902343 4.261719 17.363281 1.039062l13.839843-8c5.574219-3.167968 8.671876-9.398437 7.839844-15.757812l17.199219 10.160156c.234375.304688.535156.550782.878906.71875l40.800781 23.921875 19.601563 11.519531zm0 0" fill="#FFFFFF"/><path d="m366.425781 50.3125c1.429688 2.480469 4.074219 4.003906 6.933594 4 1.40625.003906 2.785156-.367188 4-1.070312l13.867187-8c2.492188-1.417969 4.039063-4.066407 4.042969-6.9375.007813-2.871094-1.523437-5.523438-4.015625-6.953126-2.488281-1.429687-5.550781-1.417968-8.027344.035157l-13.867187 8c-3.828125 2.207031-5.140625 7.097656-2.933594 10.925781zm0 0" fill="#FFFFFF"/><path d="m374.441406 78.503906c.25 4.234375 3.757813 7.535156 8 7.53125h.488282l17.855468-1.074218c4.417969-.261719 7.785156-4.058594 7.523438-8.476563-.261719-4.417969-4.058594-7.785156-8.476563-7.523437l-17.855469 1.074218c-2.125.117188-4.113281 1.078125-5.527343 2.667969-1.414063 1.589844-2.136719 3.679687-2.007813 5.800781zm0 0" fill="#FFFFFF"/><path d="m346.015625 29.265625c3.683594 2.433594 8.644531 1.425781 11.082031-2.257813l9.863282-14.902343c2.195312-3.675781 1.113281-8.425781-2.460938-10.785157-3.574219-2.355468-8.371094-1.480468-10.882812 1.984376l-9.863282 14.878906c-2.433594 3.6875-1.421875 8.644531 2.261719 11.082031zm0 0" fill="#FFFFFF"/><path d="m316.859375 60.457031 13.855469-8 16 27.710938-13.855469 8zm0 0" fill="#FFFFFF"/><path d="m440.234375 171.226562-.082031.078126-19.519532-11.597657zm0 0" fill="#FFFFFF"/></svg>
